<mxfile host="app.diagrams.net" modified="2022-09-30T06:54:12.793Z" agent="5.0 (Macintosh; Intel Mac OS X 10_15_7) AppleWebKit/537.36 (KHTML, like Gecko) Chrome/105.0.0.0 Safari/537.36" etag="DcN9wWOmCf7XpNg_QBCF" version="20.3.7" type="github">
  <diagram id="prtHgNgQTEPvFCAcTncT" name="Page-1">
    <mxGraphModel dx="824" dy="934" grid="1" gridSize="10" guides="1" tooltips="1" connect="1" arrows="1" fold="1" page="1" pageScale="1" pageWidth="1169" pageHeight="827" math="0" shadow="0">
      <root>
        <mxCell id="0" />
        <mxCell id="1" parent="0" />
        <mxCell id="D_44Kpy4mSSIxe3xdn1p-1" value="MTLDevice" style="rounded=1;arcSize=10;whiteSpace=wrap;html=1;align=center;" vertex="1" parent="1">
          <mxGeometry x="60" y="100" width="100" height="40" as="geometry" />
        </mxCell>
        <mxCell id="D_44Kpy4mSSIxe3xdn1p-2" value="MTLCommandQueue&lt;br&gt;&lt;br&gt;对一系列cmdBuffer 的调度" style="rounded=1;arcSize=10;whiteSpace=wrap;html=1;align=center;" vertex="1" parent="1">
          <mxGeometry x="280" y="40" width="180" height="60" as="geometry" />
        </mxCell>
        <mxCell id="D_44Kpy4mSSIxe3xdn1p-3" value="" style="edgeStyle=entityRelationEdgeStyle;fontSize=12;html=1;endArrow=ERzeroToMany;endFill=1;rounded=0;exitX=1;exitY=0.25;exitDx=0;exitDy=0;entryX=0;entryY=0.5;entryDx=0;entryDy=0;" edge="1" parent="1" source="D_44Kpy4mSSIxe3xdn1p-1" target="D_44Kpy4mSSIxe3xdn1p-2">
          <mxGeometry width="100" height="100" relative="1" as="geometry">
            <mxPoint x="160" y="430" as="sourcePoint" />
            <mxPoint x="310" y="260" as="targetPoint" />
          </mxGeometry>
        </mxCell>
        <mxCell id="D_44Kpy4mSSIxe3xdn1p-4" value="0. 生成Queue" style="edgeLabel;html=1;align=center;verticalAlign=middle;resizable=0;points=[];" vertex="1" connectable="0" parent="D_44Kpy4mSSIxe3xdn1p-3">
          <mxGeometry x="-0.1443" y="-2" relative="1" as="geometry">
            <mxPoint x="1" as="offset" />
          </mxGeometry>
        </mxCell>
        <mxCell id="D_44Kpy4mSSIxe3xdn1p-5" value="MTLCommandBuffer" style="rounded=1;arcSize=10;whiteSpace=wrap;html=1;align=center;" vertex="1" parent="1">
          <mxGeometry x="540" y="50" width="150" height="40" as="geometry" />
        </mxCell>
        <mxCell id="D_44Kpy4mSSIxe3xdn1p-6" value="" style="edgeStyle=entityRelationEdgeStyle;fontSize=12;html=1;endArrow=ERzeroToMany;endFill=1;rounded=0;exitX=1;exitY=0.5;exitDx=0;exitDy=0;entryX=0;entryY=0.5;entryDx=0;entryDy=0;" edge="1" parent="1" source="D_44Kpy4mSSIxe3xdn1p-2" target="D_44Kpy4mSSIxe3xdn1p-5">
          <mxGeometry width="100" height="100" relative="1" as="geometry">
            <mxPoint x="390" y="270" as="sourcePoint" />
            <mxPoint x="490" y="170" as="targetPoint" />
          </mxGeometry>
        </mxCell>
        <mxCell id="D_44Kpy4mSSIxe3xdn1p-7" value="MTLEncoder" style="rounded=1;arcSize=10;whiteSpace=wrap;html=1;align=center;" vertex="1" parent="1">
          <mxGeometry x="810" y="50" width="100" height="40" as="geometry" />
        </mxCell>
        <mxCell id="D_44Kpy4mSSIxe3xdn1p-8" value="" style="edgeStyle=entityRelationEdgeStyle;fontSize=12;html=1;endArrow=ERzeroToMany;endFill=1;rounded=0;exitX=1;exitY=0.5;exitDx=0;exitDy=0;entryX=0;entryY=0.5;entryDx=0;entryDy=0;" edge="1" parent="1" source="D_44Kpy4mSSIxe3xdn1p-5" target="D_44Kpy4mSSIxe3xdn1p-7">
          <mxGeometry width="100" height="100" relative="1" as="geometry">
            <mxPoint x="700" y="220" as="sourcePoint" />
            <mxPoint x="800" y="120" as="targetPoint" />
          </mxGeometry>
        </mxCell>
      </root>
    </mxGraphModel>
  </diagram>
</mxfile>
